<svg xmlns="http://www.w3.org/2000/svg" viewBox="0 0 1080 1080"><path fill="#2A94F4" d="M271 661.5C271 500.509 401.509 370 562.5 370S854 500.509 854 661.5" opacity=".09"/><path fill="#FFE3CA" d="m614.237 446.537 7.848-55.144 21.172-2.906 11.013 57.652zM630.602 531.984l-.023 6.215a13.553 13.553 0 0 0 .511 3.74l.54 1.914a2.456 2.456 0 0 1-2.371 3.126c-4.234-.015-11.469-.004-13.334-.001-.305.001-.604-.205-.63-.51-.157-1.815 5.084-3.03 9.032-4.558 3.007-1.164 2.847-6.569 2.476-9.725a1.9 1.9 0 0 1 2.051-2.108 1.906 1.906 0 0 1 1.748 1.907zM659.698 530.24l2.142 7.111c.095.314.236.612.419.885l1.518 2.255a2.567 2.567 0 0 1-1.38 3.89s-3.061 1.077-6.217 2.114c-3.23 1.061-7.293.174-7.293-.678 0-1.894 1.766-.391 4.723-2.369.991-.663 2.014-1.356 2.926-2.072 2.546-1.998.323-7.057-1.235-9.906-.56-1.024.035-2.296 1.177-2.54l.738-.157a2.128 2.128 0 0 1 2.482 1.467z"/><path fill="#0B4870" d="m637.822 447.071-23.462-1.969s-2.363 17.076 3.567 47.987c2.781 14.496 8.576 42.196 8.576 42.196 1.436.629 2.897.786 4.384.416 0 0 .44-12.219.709-25.377.258-12.62.328-26.104 1.132-30.516 1.643-9.013 5.094-32.737 5.094-32.737z"/><path fill="#0B4870" d="M632.979 447.369c-2.422 13-7.833 32.439 2.59 50.701s21.371 37.248 21.371 37.248c1.41.057 2.69-.454 3.878-1.356 0 0-1.828-8.279-4.47-17.946-3.022-11.059-6.85-24.067-5.76-30.849 2.044-12.711 4.392-29.639 3.68-37.86-.71-8.222-20.015-6.774-21.289.062z"/><path fill="#F7F7F7" d="m613.426 445.133 8.658-53.74 21.173-2.906 11.379 56.745a1.95 1.95 0 0 1-1.545 2.305c-3.942.747-13.45 2.308-24.092 2.308-7.944 0-12.408-1.545-14.439-2.523a2.06 2.06 0 0 1-1.134-2.189z"/><path fill="#FFBE55" d="M636.643 391.834c0 3.871.704 7.705 2.026 11.344 2.587 7.118 6.467 20.578 4.161 32.437-3.32 17.076-7.589 23.979-2.056 27.959 5.534 3.98 16.147-2.661 16.454-4.874.306-2.214-2.065-29.406-4.753-41.187-2.688-11.781-10.217-28.717-10.217-28.717l-3.19.341a2.711 2.711 0 0 0-2.425 2.697zM627.829 390.605s-3.672 7.936-2.391 19.338c1.281 11.402 4.248 46.122-6.127 51.365-3.285 1.66-10.788-5.692-10.788-8.42s2.504-11.858 4.877-20.159c2.373-8.301 8.091-41.254 8.091-41.254l6.338-.87z"/><path fill="#FFE3CA" d="M630.785 366.009c4.725 0 6.488 3.364 6.579 9.586.034 2.33-1.014 4.639-1.858 6.113a4.612 4.612 0 0 0-.441 3.602l1.038 3.512c.705 3.258-.842 5.045-3.126 5.694-1.131.321-2.487.072-3.475-.566-1.175-.759-1.271-2.392-1.053-3.773l.268-1.001c.361-1.349-.421-2.803-1.785-3.101-3.638-.796-4.16-4.588-5.134-10.479-1.018-6.14 4.261-9.587 8.987-9.587z"/><path fill="#0B4870" d="m619.781 363.276 2.71.824c.996.303 2.058.31 3.057.02l5.41-1.57c3.277 0 8.69 1.851 8.006 6.58l-.604 3.345a3.004 3.004 0 0 1-2.708 2.452 1.06 1.06 0 0 1-2.084-.277c0-1.509-1.059-2.796-2.531-3.126-1.805-.405-3.733-.502-5.751.04-3.761 1.01-7.726-1.32-8.101-5.196a7.674 7.674 0 0 1-.036-.747c0-1.564 1.292-2.714 2.632-2.345z"/><path fill="#FFE3CA" d="M634.758 375.71c0 1.443.537 2.612 1.926 2.612s2.281-1.984 2.281-3.427-.892-1.798-2.281-1.798-1.926 1.17-1.926 2.613z"/><path fill="#FFBE55" d="M635.333 382.043s-3.529 4.852-7.921 4.194c0 0 .912.436 1.134 1.145 0 0 4.171-.308 6.787-5.339zM420.969 633.152c1.983-2.513 3.776-5.844 2.867-10.559-.982-5.066-4.676-9.482-8.121-13.419-4.52-5.16-8.244-9.76-9.262-16.29-.734-4.705-.43-9.327-2.603-14.335-2.527-5.826-7.548-9.948-12.101-12.339-5.31-2.782-10.667-3.77-15.947-7.795-3.194-2.437-5.67-5.563-7.389-9.546-1.24-2.883-2.081-5.801-3.344-8.677-4.072-9.281-12.451-14.774-17.926-12.693-5.741.494-9.006 6.472-6.618 15.238 1.911 7.013 7.013 12.359 11.174 18.363 4.504 6.492 5.27 12.025 5.447 18.271.118 4.248.109 8.721 1.99 13.463 1.888 4.768 5.392 8.524 8.918 11.817 4.305 4.028 9.579 8.102 11.893 14.183 1.237 3.26 1.512 6.448 2.861 9.727.921 2.23 2.221 4.369 3.725 6.296 8.097 10.387 18.239 11 24.591 7.37 3.799-2.164 7.045-5.524 9.845-9.075z"/><path fill="#FAFAFA" d="m366.537 593.9 19.075 6.2a411.446 411.446 0 0 1-18.348-29.397.567.567 0 0 1-.63.129l-8.815-3.431c-.736-.287-.262-1.416.471-1.13l8.294 3.228a409.987 409.987 0 0 1-11.445-21.865l-.003-.001-9.149-4.154c-.718-.326-.247-1.457.471-1.13l7.84 3.56a396.163 396.163 0 0 1-3.431-7.319c-.327-.717.812-1.169 1.139-.452a404.897 404.897 0 0 0 8.806 18.099c.52-3.218.783-6.46.738-9.727-.011-.78 1.205-.933 1.216-.144a57.811 57.811 0 0 1-.981 11.513c-.009.049-.034.084-.051.126a409.598 409.598 0 0 0 16.917 29.31c.876-6.253 1.139-12.534.721-18.846-.052-.783 1.164-.933 1.216-.144a93.292 93.292 0 0 1-.911 20.604 410.98 410.98 0 0 0 19.231 27.494l.583-15.787c.029-.788 1.242-.612 1.213.169l-.633 17.144a408.695 408.695 0 0 0 21.607 25.823c.53.583-.451 1.317-.977.738a408.372 408.372 0 0 1-16.414-19.215.621.621 0 0 1-.326-.001l-17.518-4.923c-.759-.213-.278-1.341.471-1.13l16.177 4.546a411.946 411.946 0 0 1-16.339-22.034l-20.687-6.724c-.751-.243-.273-1.371.472-1.129z"/><path fill="#2A94F4" d="M315.738 623.43c23.777 23.841 58.1 35.856 91.551 32.081 1.026-.116-.583-1.9-.701-2.07-20.009-28.791-56.881-41.559-90.407-31.323-.529.161-.908.851-.443 1.312z"/><path fill="#FAFAFA" d="m325.609 623.801 63.767 24.098-15.002-14.818c-.51-.504.225-1.349.738-.841a262474.5 262474.5 0 0 1 16.839 16.633l19.625 7.416c.675.255.181 1.26-.488 1.007l-19.287-7.289a.473.473 0 0 1-.435-.143l-.035-.035-66.21-25.021c-.675-.255-.181-1.26.488-1.007z"/><path fill="#FAFAFA" d="M350.637 625.361c-.537-.48.2-1.322.738-.841l14.966 13.376c.537.48-.2 1.322-.738.841l-14.966-13.376zM333.951 634.343l12.19-1.496-14.042-11.071c-.566-.446.174-1.286.738-.841l14.837 11.698c.54.426-.108 1.197-.658.882a.546.546 0 0 1-.477.41l-12.514 1.535c-.718.088-.787-1.029-.074-1.117zM351.205 643.139l13.398-4.161c.687-.213 1.044.848.354 1.062l-13.398 4.161c-.687.214-1.045-.847-.354-1.062zM376.271 650.297a50.258 50.258 0 0 0 12.646-2.112c.688-.208 1.046.853.354 1.062a51.414 51.414 0 0 1-12.927 2.167c-.72.028-.795-1.089-.073-1.117z"/><path fill="#2A94F4" d="M402.574 641.044c1.228-2.366 2.173-5.371.691-9.085-1.596-3.99-5.309-7.023-8.744-9.703-4.505-3.513-8.271-6.692-10.126-11.873-1.337-3.733-1.812-7.561-4.374-11.317-2.979-4.369-7.731-6.954-11.83-8.197-4.779-1.444-9.315-1.413-14.263-3.878-2.994-1.493-5.508-3.662-7.538-6.65-1.466-2.164-2.611-4.419-4.094-6.573-4.783-6.953-12.497-10.133-16.649-7.574-4.618 1.303-6.352 6.703-3.026 13.499 2.661 5.436 7.671 9.01 12.015 13.268 4.7 4.604 6.193 9.01 7.316 14.09.762 3.456 1.455 7.115 3.736 10.7 2.291 3.604 5.745 6.128 9.145 8.268 4.152 2.62 9.103 5.126 11.948 9.738 1.522 2.473 2.246 5.037 3.863 7.508 1.103 1.679 2.501 3.226 4.032 4.566 8.249 7.227 16.64 6.14 21.267 2.177 2.769-2.365 4.897-5.622 6.631-8.964z"/><path fill="#FAFAFA" d="M329.86 576.736a2971.704 2971.704 0 0 1 19.793 19.1l-3.612-10.675c-.231-.683.86-.938 1.089-.26l4.161 12.297a.505.505 0 0 1 .018.266 3024.516 3024.516 0 0 1 16.453 16.182l-3.067-18.662c-.116-.708.972-.972 1.089-.26l3.273 19.917a.561.561 0 0 1-.022.271 3124.81 3124.81 0 0 1 15.121 15.124l-3.138-15.42c-.144-.705.945-.967 1.089-.261l3.483 17.114c3.366 3.388 6.724 6.783 10.076 10.185l-3.315-15.501c-.151-.704.938-.966 1.089-.261l3.352 15.677c.075.352-.162.577-.434.64.014.054.023.11.022.168a2424.24 2424.24 0 0 1 11.549 11.799c.503.518-.316 1.281-.818.764a2480.002 2480.002 0 0 0-11.681-11.934c-5.361.377-10.717.43-16.085.151-.719-.037-.683-1.156.038-1.119 5.007.261 10.003.222 15.002-.088a3498.283 3498.283 0 0 0-9.384-9.489.488.488 0 0 1-.435-.411l-.006-.03-.444-.444-16.28-.708c-.719-.031-.683-1.15.038-1.119l15.071.655c-4.97-4.998-9.946-9.99-14.951-14.953l-17.566-.947c-.718-.039-.683-1.157.038-1.119l16.336.881a3051.908 3051.908 0 0 0-16.727-16.448.527.527 0 0 1-.292.077l-8.446-.318c-.72-.027-.683-1.146.038-1.119l7.608.286a2967.203 2967.203 0 0 0-19.941-19.245c-.521-.497.299-1.259.818-.763z"/><path fill="#2A94F4" d="M715.218 646.99c-2.562-1.92-5.15-4.679-5.482-9.469-.352-5.148 2.085-10.365 4.404-15.054 3.044-6.148 5.462-11.55 4.769-18.122-.498-4.736-1.979-9.125-1.165-14.523.947-6.279 4.741-11.552 8.528-15.033 4.418-4.052 9.342-6.382 13.411-11.627 2.461-3.176 4.052-6.832 4.69-11.123.458-3.104.522-6.141 1.005-9.245 1.552-10.015 8.241-17.476 14.067-16.869 5.675-.996 10.366 3.943 10.308 13.028-.047 7.268-3.605 13.745-6.086 20.616-2.687 7.43-2.006 12.975-.574 19.057.976 4.136 2.134 8.456 1.534 13.523-.6 5.093-3.023 9.623-5.586 13.71-3.127 4.999-7.178 10.289-7.853 16.761-.358 3.468.195 6.62-.268 10.136-.318 2.391-1.025 4.793-1.983 7.041-5.159 12.117-14.804 15.314-21.875 13.436-4.227-1.116-8.226-3.531-11.844-6.243z"/><path fill="#FAFAFA" d="m757.749 595.079-16.844 10.89a411.602 411.602 0 0 0 10.186-33.122c.186.106.42.125.642-.037l7.639-5.579c.638-.466-.11-1.436-.746-.972l-7.187 5.249a410.256 410.256 0 0 0 5.448-24.07l.003-.002 7.776-6.363c.61-.499-.135-1.471-.746-.971l-6.664 5.453a395.27 395.27 0 0 0 1.437-7.954c.132-.777-1.085-.921-1.216-.144a403.48 403.48 0 0 1-3.865 19.753 56.01 56.01 0 0 1-3.21-9.212c-.19-.757-1.405-.593-1.212.173a57.828 57.828 0 0 0 3.904 10.875c.022.045.054.073.082.108a409.087 409.087 0 0 1-8.826 32.671c-2.452-5.818-4.319-11.822-5.535-18.029-.151-.77-1.365-.603-1.212.173a93.219 93.219 0 0 0 6.17 19.68 410.668 410.668 0 0 1-11.528 31.51 86982.51 86982.51 0 0 1-4.616-15.108c-.23-.754-1.357-.273-1.129.475l5.013 16.407a408.838 408.838 0 0 1-14.253 30.505c-.363.699.773 1.157 1.134.462a407.816 407.816 0 0 0 10.931-22.785.626.626 0 0 0 .315-.084l15.667-9.255c.678-.401-.075-1.367-.746-.971l-14.468 8.547a411.019 411.019 0 0 0 10.134-25.49l18.267-11.81c.664-.431-.087-1.399-.745-.973z"/><path fill="#2A94F4" d="M808.531 632.517c-25.299 22.22-60.339 31.944-93.468 25.971-1.016-.184.707-1.858.836-2.019 21.865-27.408 59.499-37.716 92.277-25.29.516.195.85.909.355 1.338z"/><path fill="#FAFAFA" d="m798.657 632.236-65.218 19.839 15.947-13.796c.542-.469-.135-1.361-.681-.888a246897.93 246897.93 0 0 1-17.899 15.485l-20.071 6.105c-.69.21-.263 1.246.421 1.037l19.726-6c.14.036.296.014.444-.114l.037-.032 67.716-20.599c.688-.21.262-1.245-.422-1.037z"/><path fill="#FAFAFA" d="M773.58 632.141c.567-.443-.113-1.333-.681-.888l-15.816 12.359c-.567.443.112 1.333.681.888 5.273-4.119 10.544-8.239 15.816-12.359zM789.638 642.205l-12.065-2.297 14.742-10.121c.594-.408-.089-1.295-.681-.888l-15.576 10.693c-.567.389.028 1.201.599.923a.545.545 0 0 0 .449.441l12.386 2.358c.708.135.852-.975.146-1.109zM771.841 649.844l-13.094-5.036c-.671-.258-1.098.777-.423 1.036l13.094 5.036c.671.258 1.098-.777.423-1.036zM746.357 655.332a50.238 50.238 0 0 1-12.479-2.942c-.673-.253-1.1.782-.423 1.036a51.374 51.374 0 0 0 12.755 3.015c.717.076.866-1.034.147-1.109z"/><path fill="#FFBE55" d="M720.722 644.364c-1.069-2.442-1.814-5.503-.091-9.11 1.856-3.876 5.761-6.657 9.365-9.105 4.727-3.208 8.695-6.131 10.887-11.179 1.581-3.637 2.307-7.425 5.111-11.003 3.261-4.163 8.173-6.429 12.345-7.399 4.863-1.125 9.388-.795 14.488-2.928 3.086-1.293 5.738-3.291 7.96-6.138 1.605-2.062 2.896-4.237 4.519-6.289 5.232-6.622 13.139-9.287 17.112-6.459 4.522 1.605 5.896 7.108 2.129 13.669-3.014 5.249-8.249 8.485-12.864 12.447-4.994 4.284-6.774 8.582-8.23 13.577-.989 3.398-1.921 7.004-4.433 10.43-2.523 3.445-6.137 5.735-9.67 7.647-4.316 2.341-9.421 4.515-12.564 8.928-1.682 2.367-2.573 4.878-4.35 7.236-1.211 1.603-2.708 3.054-4.325 4.29-8.708 6.667-17.009 5.029-21.364.769-2.606-2.544-4.515-5.934-6.025-9.383z"/><path fill="#FAFAFA" d="M797.52 584.994a2988.584 2988.584 0 0 0-21.01 17.752l4.309-10.414c.276-.666-.796-.992-1.069-.332l-4.963 11.996a.505.505 0 0 0-.035.264 3053.444 3053.444 0 0 0-17.485 15.061l4.292-18.419c.163-.699-.906-1.034-1.069-.332l-4.58 19.658a.577.577 0 0 0 .004.272 3116.644 3116.644 0 0 0-16.086 14.093l4.148-15.179c.19-.694-.879-1.027-1.069-.332l-4.604 16.847a3447.134 3447.134 0 0 0-10.726 9.498l4.33-15.249c.197-.693-.872-1.025-1.069-.332l-4.379 15.422c-.098.347.123.586.391.668a.652.652 0 0 0-.033.166 2469.611 2469.611 0 0 0-12.302 11.011c-.536.483.23 1.299.766.816 4.134-3.728 8.284-7.438 12.443-11.138a131.62 131.62 0 0 0 16.04 1.212c.719.01.758-1.109.036-1.119-5.013-.07-9.996-.439-14.964-1.078 3.325-2.955 6.653-5.906 9.99-8.849a.487.487 0 0 0 .461-.381l.008-.029.472-.414 16.292.368c.72.016.757-1.102.036-1.119l-15.081-.341a3006.323 3006.323 0 0 1 15.905-13.934l17.59.214c.719.009.758-1.11.036-1.119l-16.359-.199a3009.454 3009.454 0 0 1 17.776-15.309.515.515 0 0 0 .287.096l8.448.24c.72.02.757-1.098.036-1.119l-7.61-.216a3006.672 3006.672 0 0 1 21.167-17.888c.549-.461-.219-1.275-.77-.813z"/><path fill="#F7F7F7" d="M747.02 433v228.243H591.965c-1.703-9.109-9.952-16.714-19.243-17.375-6.249-.463-13.094 1.769-18.516-1.372-5.604-3.24-6.96-10.614-7.34-17.061-.397-6.464-.711-13.656-5.373-18.136-4.464-4.265-11.292-4.48-17.458-4.613-10.217-.232-21.608-1.488-28.237-9.258-5.356-6.315-6.084-15.557-3.918-23.542 2.166-7.985 6.828-15.011 11.407-21.905 4.116-6.183 8.25-12.366 12.366-18.549 4.827-7.241 9.87-15.887 7.125-24.153-3.621-10.928-18.731-14.449-22.814-25.228-2.629-6.91.05-15.177-3.34-21.756-2.364-4.579-7.258-7.357-12.217-8.795-9.804-2.844-20.814-1.256-29.411 4.265-5.406 3.472-9.787 8.332-15.094 11.953-5.307 3.621-12.201 5.952-18.136 3.538-6.167-2.513-9.407-9.192-14.565-13.408-5.423-4.414-12.845-5.869-19.806-5.125-3.257.364-6.414 1.141-9.506 2.215V433H747.02z"/><path fill="#2A94F4" d="M728.013 447.269c-.075.092-.375.192-.6.192h-.581c-.525 0-.824-.238-.618-.466l2.549-2.616-2.549-2.616c-.206-.229.075-.466.618-.466h.581c.225 0 .525.101.6.192l1.781 1.811c.58-.604 1.18-1.207 1.761-1.811.075-.1.375-.192.6-.192h.581c.525 0 .824.238.6.466l-2.512 2.616 2.549 2.616c.226.229-.055.466-.6.466h-.58c-.226 0-.525-.091-.619-.192l-1.761-1.82-1.8 1.82zM720.115 439.484h-6.119c-.822 0-1.494.672-1.494 1.494v2.414h1.326v-2.414c0-.088.071-.168.168-.168h6.119c.097 0 .177.08.177.168v3.05c0 .097-.08.177-.177.177h-3.422v1.326h3.422c.831 0 1.503-.672 1.503-1.503v-3.05a1.5 1.5 0 0 0-1.503-1.494z"/><path fill="#2A94F4" d="M716.516 442.066h-6.119c-.822 0-1.494.672-1.494 1.494v3.05a1.5 1.5 0 0 0 1.494 1.503h6.119c.831 0 1.503-.672 1.503-1.503v-3.05a1.5 1.5 0 0 0-1.503-1.494zm.177 4.544c0 .097-.08.177-.177.177h-6.119c-.088 0-.168-.08-.168-.177v-3.05c0-.088.08-.168.168-.168h6.119c.097 0 .177.08.177.168v3.05zM704.309 444.379h-7.666a.44.44 0 0 1-.439-.439v-.993a.44.44 0 0 1 .439-.439h7.666a.44.44 0 0 1 .439.439v.993a.44.44 0 0 1-.439.439z"/><path fill="#2A94F4" d="m552.666 447.609 170.614 30.756-17.244 95.66-170.615-30.757z" opacity=".66"/><path fill="#F7F7F7" d="M881.426 705h-667c-12.15 0-22-9.85-22-22s9.85-22 22-22h667c12.15 0 22 9.85 22 22s-9.85 22-22 22z"/><path fill="none" d="M724.21 619.64h-.039"/><path fill="#FFBE55" d="M687.657 654.091h49.745v6.028h-49.745z"/><path fill="#F7F7F7" d="M727.166 630.718h-29.273l2.995-11.078h23.283z"/><path fill="#FFBE55" d="M733.481 654.091h-41.903l6.315-23.373h29.273z"/><path fill="none" d="M727.252 630.718h-.086"/><path fill="#FFBE55" d="M724.171 619.64h-23.282l6.024-22.302s.298 4.571 5.621 4.571c5.316 0 5.614-4.571 5.614-4.571l6.023 22.302z"/><path fill="#FFBE55" d="M664.17 615.12s-.219 3.359-4.125 3.359c-3.911 0-4.13-3.359-4.13-3.359h8.255z" opacity=".72"/><path fill="none" d="M668.626 631.508h-.029"/><path fill="#FFBE55" d="M641.766 656.823h36.553v4.43h-36.553z"/><path fill="#F7F7F7" d="M670.798 639.648h-21.51l2.201-8.14h17.108z"/><path fill="#FFBE55" d="M675.438 656.823h-30.791l4.641-17.175h21.51z"/><path fill="none" d="M670.861 639.648h-.063"/><path fill="#FFBE55" d="M668.597 631.508h-17.108l4.426-16.388s.219 3.359 4.13 3.359c3.907 0 4.125-3.359 4.125-3.359l4.427 16.388z"/><path fill="#FFBE55" d="M718.147 597.339s-.298 4.571-5.614 4.571c-5.323 0-5.621-4.571-5.621-4.571h11.235z" opacity=".74"/><path fill="#FFBE55" d="M591.965 661.243H377.889V452.938c3.092-1.075 6.249-1.852 9.506-2.215 6.96-.744 14.383.711 19.806 5.125 5.158 4.216 8.398 10.895 14.565 13.408 5.935 2.414 12.829.083 18.136-3.538 5.307-3.621 9.688-8.481 15.094-11.953 8.597-5.522 19.607-7.109 29.411-4.265 4.96 1.438 9.853 4.216 12.217 8.795 3.389 6.58.711 14.846 3.34 21.756 4.083 10.779 19.194 14.3 22.814 25.228 2.744 8.266-2.298 16.912-7.125 24.153-4.117 6.183-8.25 12.366-12.366 18.549-4.579 6.894-9.242 13.92-11.407 21.905-2.166 7.985-1.438 17.227 3.918 23.542 6.629 7.77 18.02 9.026 28.237 9.258 6.167.132 12.994.347 17.458 4.613 4.662 4.48 4.976 11.672 5.373 18.136.38 6.448 1.736 13.821 7.34 17.061 5.422 3.141 12.267.909 18.516 1.372 9.29.661 17.54 8.266 19.243 17.375z"/><text transform="rotate(9.53 -2666.62 3676.22)"><tspan x="0" y="0" fill="#FFF" font-family="'MS-UIGothic'" font-size="32.111">SERVER</tspan><tspan x="14.111" y="38.533" fill="#FFF" font-family="'MS-UIGothic'" font-size="32.111">DOWN</tspan></text><path fill="#FFE3CA" d="M592.354 463.78c.023-1.424.203-2.85.153-3.415-.021-.236-.267-.849-.326-1.032-.173-.537-.526-1.34-.389-1.888l.539-2.31c.279-1.112-.047-2.09-1.159-2.369-1.204-.302-2.009.588-2.17 1.82l-.404 1.61c-.129.985-.689 1.818-1.203 2.669-1.046 1.73-1.123 4.066-1.01 5.946.071 1.179 1.295 2.197 2.998 3.462.837.621 2.32 1.335 2.002.061-.267-1.068-2.718-3.151-1.137-5.906.078-.135.302-.468.489-.427.558.122.351 1.376.466 2.042.161.935.666 1.423 1.049 1.424.405 0 .085-.67.102-1.687z"/><path fill="#FFBE55" d="M619.311 392.206s-23.918 19.562-27.261 33.032c-2.014 8.119-3.175 25.381-3.422 29.366-.032.508.272.977.75 1.152.306.112.662.231.997.315.34.085.792.147 1.215.191.7.072 1.34-.393 1.497-1.079 1.16-5.069 5.827-25.044 8.162-28.689 2.679-4.182 23.048-22.213 24.545-26.943 1.498-4.73-1.117-10.026-6.483-7.345z"/><path fill="#FFE3CA" d="M655.331 465.933c.324-1.387.497-2.814.682-3.35.077-.224.465-.759.567-.922.299-.479.836-1.172.836-1.737l.04-2.372c0-1.147.554-2.016 1.7-2.016 1.242 0 1.806 1.059 1.662 2.293v1.66c-.115.987.226 1.931.518 2.881.594 1.933.101 4.217-.466 6.013-.356 1.127-1.79 1.816-3.75 2.629-.963.399-2.575.731-1.957-.428.518-.971 3.403-2.396 2.54-5.452-.043-.15-.179-.528-.371-.534-.571-.017-.675 1.25-.949 1.868-.384.867-.992 1.219-1.364 1.126-.392-.096.081-.669.312-1.659z"/><path fill="#FFBE55" d="M646.592 389.952s18.442 24.792 18.408 38.67c-.021 8.365-3.093 25.391-3.823 29.316a1.148 1.148 0 0 1-1.007.935c-.324.034-.698.063-1.044.063-.35 0-.804-.05-1.225-.11a1.391 1.391 0 0 1-1.19-1.41c.108-5.199.439-25.709-.939-29.812-1.581-4.708-16.953-27.152-17.255-32.104-.302-4.953 3.523-9.454 8.075-5.548z"/><circle cx="564.238" cy="461.499" r="5.961" fill="#F7F7F7"/><circle cx="710.23" cy="486.957" r="5.961" fill="#F7F7F7"/><path fill="#FFE3CA" d="m408.146 571.118-7.307-51.345-19.714-2.705-10.254 53.679zM392.908 650.676l.021 5.787a12.69 12.69 0 0 1-.475 3.482l-.503 1.782a2.288 2.288 0 0 0 2.208 2.911c3.942-.014 10.679-.004 12.415-.001.284 0 .563-.191.587-.474.146-1.69-4.734-2.821-8.41-4.244-2.8-1.084-2.651-6.116-2.306-9.055a1.77 1.77 0 0 0-1.91-1.963c-.922.077-1.63.85-1.627 1.775zM365.817 649.053l-1.994 6.621c-.088.293-.22.57-.39.824l-1.414 2.099a2.391 2.391 0 0 0 1.285 3.622s2.85 1.003 5.788 1.968c3.008.988 6.791.162 6.791-.631 0-1.763-1.644-.364-4.398-2.205-.923-.617-1.875-1.263-2.724-1.929-2.37-1.861-.301-6.571 1.15-9.224.522-.954-.032-2.138-1.095-2.365l-.687-.146a1.981 1.981 0 0 0-2.312 1.366z"/><path fill="#0B4870" d="m386.185 571.614 21.845-1.833s2.2 15.899-3.321 44.68c-2.589 13.497-7.985 39.288-7.985 39.288-1.337.585-2.697.732-4.082.387 0 0-.41-11.377-.66-23.628-.24-11.75-.305-24.305-1.054-28.413-1.529-8.391-4.743-30.481-4.743-30.481z"/><path fill="#0B4870" d="M390.695 571.892c2.255 12.104 7.294 30.204-2.411 47.207s-19.898 34.681-19.898 34.681c-1.313.054-2.504-.423-3.611-1.263 0 0 1.702-7.708 4.162-16.709 2.814-10.297 6.378-22.408 5.363-28.723-1.903-11.835-4.089-27.597-3.427-35.251.661-7.655 18.636-6.307 19.822.058z"/><path fill="#F7F7F7" d="m408.9 569.81-8.062-50.037-19.714-2.706-10.595 52.835a1.816 1.816 0 0 0 1.439 2.146c3.67.696 12.524 2.149 22.431 2.149 7.396 0 11.553-1.438 13.444-2.349a1.915 1.915 0 0 0 1.057-2.038z"/><path fill="#2A94F4" d="M387.283 520.184c0 3.604-.655 7.174-1.886 10.562-2.408 6.628-6.022 19.16-3.875 30.201 3.092 15.899 7.066 22.327 1.914 26.032-5.153 3.706-15.035-2.478-15.32-4.539-.285-2.061 1.923-27.38 4.426-38.349 2.503-10.969 9.513-26.738 9.513-26.738l2.97.317a2.53 2.53 0 0 1 2.258 2.514zM395.49 519.039s3.419 7.389 2.226 18.006c-1.192 10.616-3.956 42.944 5.705 47.825 3.059 1.546 10.045-5.3 10.045-7.839s-2.332-11.041-4.541-18.77c-2.209-7.729-7.534-38.412-7.534-38.412l-5.901-.81z"/><path fill="#FFE3CA" d="M392.738 496.139c-4.4 0-6.041 3.132-6.125 8.926-.031 2.17.945 4.319 1.73 5.692a4.296 4.296 0 0 1 .411 3.354l-.966 3.27c-.657 3.033.784 4.697 2.91 5.301 1.053.299 2.316.067 3.235-.527 1.094-.707 1.184-2.227.98-3.513l-.25-.932c-.336-1.256.392-2.61 1.662-2.888 3.388-.741 3.873-4.272 4.781-9.757.947-5.717-3.968-8.926-8.368-8.926z"/><path fill="#0B4870" d="m402.983 493.594-2.523.767a4.998 4.998 0 0 1-2.847.018l-5.038-1.462c-3.051 0-8.091 1.723-7.454 6.126l.562 3.114a2.798 2.798 0 0 0 2.522 2.283.988.988 0 0 0 1.94-.258c0-1.405.986-2.603 2.357-2.911 1.681-.377 3.476-.467 5.355.038 3.502.941 7.193-1.229 7.543-4.838.022-.228.034-.461.034-.696 0-1.454-1.203-2.525-2.451-2.181z"/><path fill="#FFE3CA" d="M389.038 505.171c0 1.343-.5 2.432-1.793 2.432s-2.124-1.847-2.124-3.191c0-1.343.83-1.674 2.124-1.674s1.793 1.09 1.793 2.433z"/><path fill="#FFBE55" d="M388.503 511.068s3.286 4.518 7.375 3.905c0 0-.849.406-1.056 1.066.001 0-3.883-.287-6.319-4.971z"/><path fill="#FFE3CA" d="M460.736 517.953c-1.183.6-2.435 1.071-2.879 1.358-.185.119-.583.589-.708.717-.367.376-.875 1.016-1.386 1.141l-2.136.56c-1.037.254-1.701.947-1.447 1.984.275 1.123 1.358 1.399 2.441.996l1.501-.367c.867-.322 1.796-.223 2.72-.169 1.879.109 3.836-.842 5.335-1.752.94-.571 1.247-2.021 1.548-3.973.148-.959.091-2.491-.82-1.675-.764.684-1.414 3.608-4.37 3.503-.145-.005-.517-.045-.565-.217-.142-.513.981-.887 1.479-1.271.7-.539.883-1.167.717-1.482-.172-.336-.585.219-1.43.647z"/><path fill="#2A94F4" d="M398.447 531.128s18.138 6.923 30.683 3.823c7.561-1.869 22.28-8.414 25.669-9.942a1.07 1.07 0 0 0 .623-1.118 9.45 9.45 0 0 0-.174-.958 8.628 8.628 0 0 0-.371-1.084 1.296 1.296 0 0 0-1.539-.764c-4.679 1.247-23.155 6.083-27.171 5.745-4.608-.389-20.23-7.802-24.775-6.98-4.546.822-.167 7.533-2.945 11.278z"/><path fill="#FFE3CA" d="M369.883 589.177c-.302-1.292-.462-2.62-.635-3.119-.072-.208-.433-.706-.528-.858-.278-.446-.779-1.091-.779-1.617l-.037-2.208c0-1.068-.516-1.877-1.583-1.877-1.156 0-1.681.986-1.548 2.135v1.546c.107.919-.211 1.798-.482 2.682-.553 1.8-.094 3.927.434 5.598.331 1.049 1.667 1.691 3.492 2.448.896.372 2.398.68 1.822-.398-.483-.904-3.169-2.23-2.365-5.076.04-.14.167-.491.345-.497.532-.016.629 1.164.883 1.739.357.808.924 1.135 1.27 1.049.367-.092-.074-.625-.289-1.547z"/><path fill="#2A94F4" d="M378.02 518.431s-17.171 23.083-17.139 36.006c.019 7.789 2.88 23.641 3.559 27.296.087.466.466.82.938.87.302.032.65.059.972.059.326 0 .749-.047 1.141-.103a1.295 1.295 0 0 0 1.108-1.313c-.1-4.841-.409-23.937.875-27.758 1.472-4.383 15.784-25.281 16.066-29.892.28-4.61-3.281-8.801-7.52-5.165z"/><path fill="#F7F7F7" d="M483.971 458.102c1.568.239 2.652 1.713 2.414 3.268a2.921 2.921 0 0 1-1.138 1.89 2.872 2.872 0 0 1-2.143.523l-19.19-2.929a2.884 2.884 0 0 1-2.412-3.281 2.867 2.867 0 0 1 3.279-2.4l19.19 2.929z"/><path fill="#2A94F4" d="m471.758 469.374-8.558 56.068a.5.5 0 0 1-.562.413l-1.344-.205a.5.5 0 0 1-.413-.562l8.558-56.068a.492.492 0 0 1 .562-.413l1.344.205c.263.04.455.285.413.562z"/><path fill="#0B4870" d="M470.299 468.748a.334.334 0 0 1-.279-.38l.451-2.958-12.776-1.95a.334.334 0 0 1-.279-.38l.949-6.221a.334.334 0 0 1 .38-.279l2.577.393a.334.334 0 0 1-.101.659l-2.247-.343-.849 5.562 12.776 1.95a.334.334 0 0 1 .279.38l-.502 3.287a.332.332 0 0 1-.379.28zM400.04 510.54s-1.018-1.707-4.162-1.065c-3.144.642-4.102 2.206-4.836.706s-.806-6.712-.806-6.712l-1.292.774s.563 2.236-.441 3.161c-1.003.926-1.961 3.479-.301 5.298 1.66 1.819 1.508 3.574 1.508 3.574l.152-1.883.734 2.043.16-1.308 3.447 3.351 3.926-3.926-.255 1.197c-.002 0 2.643-3.637 2.166-5.21z"/><path fill="#2A94F4" d="M415.945 373.098h-70.386a8.134 8.134 0 0 1 0-16.268h70.386a8.134 8.134 0 0 1 0 16.268zM474.398 402.791h-70.386a8.134 8.134 0 0 1 0-16.268h70.386a8.134 8.134 0 0 1 0 16.268zM747.008 373.098h-70.386a8.134 8.134 0 0 1 0-16.268h70.386a8.134 8.134 0 0 1 0 16.268zM805.461 402.791h-70.386a8.134 8.134 0 0 1 0-16.268h70.386a8.134 8.134 0 0 1 0 16.268z" opacity=".09"/></svg>